<svg t="1602143490994" class="icon" viewBox="0 0 1024 1024" version="1.1" xmlns="http://www.w3.org/2000/svg" p-id="3278"
     width="200" height="200">
    <path d="M512 1024c-136.76544 0-265.33888-53.248-362.04544-149.95456s-149.95456-225.28-149.95456-362.04544c0-96.82944 27.17696-191.13984 78.60224-272.6912 49.99168-79.29856 120.66816-143.38048 204.34944-185.30304l43.008 85.83168c-68.03456 34.07872-125.50144 86.17984-166.15424 150.67136-41.73824 66.21184-63.81568 142.80704-63.81568 221.4912 0 229.376 186.61376 416.01024 416.01024 416.01024s416.01024-186.61376 416.01024-416.01024c0-78.68416-22.05696-155.27936-63.81568-221.4912-40.6528-64.49152-98.11968-116.59264-166.15424-150.67136l43.008-85.83168c83.70176 41.92256 154.35776 106.00448 204.34944 185.30304 51.42528 81.55136 78.60224 175.86176 78.60224 272.6912 0 136.76544-53.248 265.33888-149.95456 362.04544s-225.28 149.95456-362.04544 149.95456z"
          p-id="3279" fill="#FF6D10"></path>
</svg>
